<svg xmlns="http://www.w3.org/2000/svg" xmlns:xlink="http://www.w3.org/1999/xlink" version="1.1" width="300" height="125" viewBox="0 0 300 125" xml:space="preserve">
<desc>Created with Fabric.js 3.5.0</desc>
<defs>
</defs>
<rect x="0" y="0" width="100%" height="100%" fill="rgba(255,255,255,0)"/>
<g transform="matrix(1 0 0 1 149.7534 61.6772)" style="" id="57240">
		
<path xml:space="preserve" font-family="Lato" font-size="103" font-style="normal" font-weight="bold" style="stroke: none; stroke-width: 1; stroke-dasharray: none; stroke-linecap: butt; stroke-dashoffset: 0; stroke-linejoin: miter; stroke-miterlimit: 4; is-custom-font: none; font-file-url: none; fill: rgb(244,63,94); fill-rule: nonzero; opacity: 1; white-space: pre;" d="M-127.33-42.11L-127.33 20.92L-97.51 20.92L-97.51 32.36L-141.18 32.36L-141.18-42.11L-127.33-42.11ZM-20.62-4.88L-20.62-4.88Q-20.62 3.31-23.35 10.29Q-26.08 17.27-31.02 22.37Q-35.97 27.46-42.92 30.32Q-49.87 33.18-58.32 33.18L-58.32 33.18Q-66.76 33.18-73.74 30.32Q-80.72 27.46-85.69 22.37Q-90.66 17.27-93.39 10.29Q-96.12 3.31-96.12-4.88L-96.12-4.88Q-96.12-13.07-93.39-20.04Q-90.66-27.02-85.69-32.12Q-80.72-37.22-73.74-40.08Q-66.76-42.94-58.32-42.94L-58.32-42.94Q-49.87-42.94-42.92-40.05Q-35.97-37.17-31.02-32.10Q-26.08-27.02-23.35-20.04Q-20.62-13.07-20.62-4.88ZM-34.83-4.88L-34.83-4.88Q-34.83-11.01-36.46-15.87Q-38.08-20.74-41.12-24.14Q-44.16-27.54-48.51-29.34Q-52.86-31.14-58.32-31.14L-58.32-31.14Q-63.78-31.14-68.15-29.34Q-72.53-27.54-75.60-24.14Q-78.66-20.74-80.31-15.87Q-81.96-11.01-81.96-4.88L-81.96-4.88Q-81.96 1.25-80.31 6.12Q-78.66 10.98-75.60 14.36Q-72.53 17.73-68.15 19.53Q-63.78 21.34-58.32 21.34L-58.32 21.34Q-52.86 21.34-48.51 19.53Q-44.16 17.73-41.12 14.36Q-38.08 10.98-36.46 6.12Q-34.83 1.25-34.83-4.88ZM24.49 22.16L24.49 22.16Q29.18 22.16 32.66 21.31Q36.13 20.46 39.27 18.97L39.27 18.97L39.27 5.42L29.95 5.42Q28.61 5.42 27.84 4.68Q27.07 3.93 27.07 2.85L27.07 2.85L27.07-4.98L51.84-4.98L51.84 25.15Q49.01 27.21 45.94 28.73Q42.88 30.24 39.40 31.22Q35.93 32.20 31.96 32.69Q28.00 33.18 23.41 33.18L23.41 33.18Q15.28 33.18 8.43 30.35Q1.58 27.52-3.42 22.47Q-8.41 17.42-11.22 10.42Q-14.03 3.41-14.03-4.88L-14.03-4.88Q-14.03-13.27-11.30-20.28Q-8.57-27.28-3.55-32.33Q1.47-37.37 8.63-40.16Q15.79-42.94 24.70-42.94L24.70-42.94Q33.82-42.94 40.48-40.23Q47.15-37.53 51.79-33.20L51.79-33.20L47.77-26.92Q46.59-25.01 44.63-25.01L44.63-25.01Q43.39-25.01 42.11-25.84L42.11-25.84Q40.46-26.82 38.73-27.80Q37.01-28.77 34.92-29.50Q32.84-30.22 30.24-30.68Q27.64-31.14 24.24-31.14L24.24-31.14Q18.73-31.14 14.27-29.29Q9.82-27.44 6.67-23.98Q3.53-20.53 1.83-15.69Q0.13-10.85 0.13-4.88L0.13-4.88Q0.13 1.56 1.94 6.58Q3.74 11.60 6.98 15.05Q10.23 18.50 14.71 20.33Q19.19 22.16 24.49 22.16ZM136.20-4.88L136.20-4.88Q136.20 3.31 133.47 10.29Q130.74 17.27 125.79 22.37Q120.85 27.46 113.90 30.32Q106.95 33.18 98.50 33.18L98.50 33.18Q90.05 33.18 83.07 30.32Q76.10 27.46 71.13 22.37Q66.16 17.27 63.43 10.29Q60.70 3.31 60.70-4.88L60.70-4.88Q60.70-13.07 63.43-20.04Q66.16-27.02 71.13-32.12Q76.10-37.22 83.07-40.08Q90.05-42.94 98.50-42.94L98.50-42.94Q106.95-42.94 113.90-40.05Q120.85-37.17 125.79-32.10Q130.74-27.02 133.47-20.04Q136.20-13.07 136.20-4.88ZM121.98-4.88L121.98-4.88Q121.98-11.01 120.36-15.87Q118.74-20.74 115.70-24.14Q112.66-27.54 108.31-29.34Q103.96-31.14 98.50-31.14L98.50-31.14Q93.04-31.14 88.66-29.34Q84.29-27.54 81.22-24.14Q78.16-20.74 76.51-15.87Q74.86-11.01 74.86-4.88L74.86-4.88Q74.86 1.25 76.51 6.12Q78.16 10.98 81.22 14.36Q84.29 17.73 88.66 19.53Q93.04 21.34 98.50 21.34L98.50 21.34Q103.96 21.34 108.31 19.53Q112.66 17.73 115.70 14.36Q118.74 10.98 120.36 6.12Q121.98 1.25 121.98-4.88Z"/></g>
</svg>